<?xml version="1.0" encoding="utf-8"?>
<!-- Generator: Adobe Illustrator 21.0.2, SVG Export Plug-In . SVG Version: 6.00 Build 0)  -->
<svg version="1.1" id="Layer_1" xmlns="http://www.w3.org/2000/svg" xmlns:xlink="http://www.w3.org/1999/xlink" x="0px" y="0px"
	 viewBox="0 0 224.8 204.8" style="enable-background:new 0 0 224.8 204.8;" xml:space="preserve">
<style type="text/css">
	.st0{fill:#ECB100;}
</style>
<g>
	<path class="st0" d="M45.4,101c0,8,3.5,12,10.6,12c7.7,0,14.6-4.7,20.6-14c1.6-7.1,4.6-19.3,9.1-36.8C90.2,44.7,92.8,34,93.6,30
		c1.7-7.9,3.7-14.1,5.9-18.8c2.2-4.7,5-7,8.3-7c6.1,0,10.8,1.4,14.1,4.1c3.3,2.7,4.9,7.7,4.9,14.8c0,7.1-2.4,15.2-7.2,24.1
		c-0.8,4.8-1.7,9.8-2.6,15c-0.9,5.2-2.1,12-3.6,20.4c-1.5,8.4-4.2,22.7-8.2,42.8c15.7-6.4,25.4-11.7,28.9-15.8
		c3.5-4.1,6.3-6.2,8.3-6.2s3,2.1,3,6.2c0,4.1-1.2,7.7-3.7,10.8c-2.5,3.1-6.3,6.5-11.6,10.4c-5.3,3.9-14.9,8.8-28.9,14.8
		c-6.9,29.6-19.6,48.3-38,56c-5.1,2.1-10.4,3.2-16,3.2c-12,0-21.5-2.3-28.6-6.8c-8.1-5.1-12.2-12.6-12.2-22.6
		c0-8.9,13.3-18.4,40-28.4c13.3-4.9,21.4-7.8,24.2-8.6c0-3.2,0.3-7.3,1-12.4c-8.3,4.7-17.3,7-27.1,7s-17.2-3-22.1-8.9
		C17.5,118.2,15,110,15,99.6c0-4.9,0.8-10.2,2.5-15.8c1.7-5.6,3.5-11.3,5.6-17.1c2.1-5.8,3.9-11.5,5.6-17.1
		c1.7-5.6,2.5-10.8,2.5-15.6c0-8.9-2.7-13.4-8.2-13.4c-1.9,0-3.6,0.5-5.1,1.6c-1.5,1.1-3.1,2.2-4.6,3.4c-1.5,1.2-3.1,2.3-4.7,3.4
		c-1.6,1.1-3.4,1.6-5.5,1.6C1,30.6,0,28.8,0,25.2c0-7.3,3.4-13.3,10.2-18C16.7,2.4,24.5,0,33.6,0C42.7,0,49.5,3.3,54,10
		c3.5,4.9,5.2,10.5,5.2,16.8c0,6.3-0.7,12.3-2.2,18.1c-1.5,5.8-3,11.8-4.7,17.9c-1.7,6.1-3.2,12.4-4.7,18.7
		C46.1,87.8,45.4,94.3,45.4,101z M52.6,186.8c5.3-4.4,9.9-13.7,13.6-28c-7.1,2.5-13.1,4.6-18,6.2c-4.9,1.6-9,3.1-12.2,4.4
		c-3.2,1.3-5.5,2.6-7,3.9c-1.5,1.3-2.2,2.8-2.2,4.5c0,3.3,2,6.1,6,8.2c4,2.1,7.8,3.2,11.4,3.3C47.8,189.4,50.6,188.5,52.6,186.8z"/>
	<path class="st0" d="M188.2,149.1c-5.3,4.5-11.1,6.7-17.4,6.7c-6.3,0-9.4-3.4-9.4-10.3s2.2-13,6.7-18.5c4.5-5.5,9-8.2,13.5-8.2
		c8,0,14.2,4.5,18.6,13.4C197.5,139,193.5,144.6,188.2,149.1z M201.6,12c2.3-2.3,4.7-3.4,7.2-3.4c4.3,0,8,1.6,11.1,4.7
		c3.1,3.1,4.8,5.7,4.9,7.7c-0.1,3.6-1.4,7.4-3.9,11.5c-2.5,4.1-5.2,8.3-8.1,12.8c-2.9,4.5-5.6,9.1-8,14c-2.4,4.9-3.6,9.3-3.6,13.2
		c0,3.9,0.3,7.7,1,11.2c0.7,3.5,1,6.4,1,8.7c0,4-2.5,7.2-7.4,9.7c-4.9,2.5-9.6,3.7-14,3.7s-7.2-1.1-8.5-3.3
		c-1.3-2.2-1.9-5.6-1.9-10.1c0-11.1,2.8-25,8.3-41.9C185.2,33.6,192.5,20.8,201.6,12z"/>
</g>
</svg>
